<mxfile host="app.diagrams.net" modified="2023-12-23T05:45:56.755Z" agent="Mozilla/5.0 (Macintosh; Intel Mac OS X 10_15_7) AppleWebKit/537.36 (KHTML, like Gecko) Chrome/120.0.0.0 Safari/537.36" etag="pSWw62vuUXa5tcY-7tcy" version="22.1.11" type="github">
  <diagram id="C5RBs43oDa-KdzZeNtuy" name="Page-1">
    <mxGraphModel dx="2049" dy="1136" grid="0" gridSize="10" guides="1" tooltips="1" connect="1" arrows="1" fold="1" page="1" pageScale="1" pageWidth="827" pageHeight="1169" math="0" shadow="0">
      <root>
        <mxCell id="WIyWlLk6GJQsqaUBKTNV-0" />
        <mxCell id="WIyWlLk6GJQsqaUBKTNV-1" parent="WIyWlLk6GJQsqaUBKTNV-0" />
        <mxCell id="8wNc4SXrdiQcW7aJmr-D-47" value="" style="group;rounded=0;" vertex="1" connectable="0" parent="WIyWlLk6GJQsqaUBKTNV-1">
          <mxGeometry x="22" y="657" width="392" height="163" as="geometry" />
        </mxCell>
        <mxCell id="8wNc4SXrdiQcW7aJmr-D-37" value="" style="rounded=0;whiteSpace=wrap;html=1;" vertex="1" parent="8wNc4SXrdiQcW7aJmr-D-47">
          <mxGeometry width="392" height="163" as="geometry" />
        </mxCell>
        <mxCell id="8wNc4SXrdiQcW7aJmr-D-44" value="" style="endArrow=none;html=1;rounded=0;entryX=1;entryY=0.5;entryDx=0;entryDy=0;exitX=0;exitY=0.5;exitDx=0;exitDy=0;" edge="1" parent="8wNc4SXrdiQcW7aJmr-D-47" source="8wNc4SXrdiQcW7aJmr-D-37" target="8wNc4SXrdiQcW7aJmr-D-37">
          <mxGeometry width="50" height="50" relative="1" as="geometry">
            <mxPoint x="9.333333333333334" y="85.78947368421052" as="sourcePoint" />
            <mxPoint x="56" y="42.89473684210526" as="targetPoint" />
          </mxGeometry>
        </mxCell>
        <mxCell id="8wNc4SXrdiQcW7aJmr-D-48" value="选择" style="rounded=1;whiteSpace=wrap;html=1;" vertex="1" parent="8wNc4SXrdiQcW7aJmr-D-47">
          <mxGeometry width="65.33333333333333" height="25.736842105263158" as="geometry" />
        </mxCell>
        <mxCell id="8wNc4SXrdiQcW7aJmr-D-51" value="条件满足" style="text;html=1;strokeColor=none;fillColor=none;align=center;verticalAlign=middle;whiteSpace=wrap;rounded=0;" vertex="1" parent="8wNc4SXrdiQcW7aJmr-D-47">
          <mxGeometry x="4.666666666666667" y="25.736842105263158" width="56" height="25.736842105263158" as="geometry" />
        </mxCell>
        <mxCell id="8wNc4SXrdiQcW7aJmr-D-57" value="" style="endArrow=classic;html=1;rounded=0;" edge="1" parent="8wNc4SXrdiQcW7aJmr-D-47">
          <mxGeometry width="50" height="50" relative="1" as="geometry">
            <mxPoint x="202.33" y="145" as="sourcePoint" />
            <mxPoint x="33" y="145" as="targetPoint" />
          </mxGeometry>
        </mxCell>
        <mxCell id="8wNc4SXrdiQcW7aJmr-D-52" value="否则" style="text;html=1;strokeColor=none;fillColor=none;align=center;verticalAlign=middle;whiteSpace=wrap;rounded=0;" vertex="1" parent="8wNc4SXrdiQcW7aJmr-D-47">
          <mxGeometry y="81" width="38" height="18.53" as="geometry" />
        </mxCell>
        <mxCell id="WIyWlLk6GJQsqaUBKTNV-2" value="" style="rounded=0;html=1;jettySize=auto;orthogonalLoop=1;fontSize=11;endArrow=block;endFill=0;endSize=8;strokeWidth=1;shadow=0;labelBackgroundColor=none;edgeStyle=orthogonalEdgeStyle;" parent="WIyWlLk6GJQsqaUBKTNV-1" source="WIyWlLk6GJQsqaUBKTNV-3" target="WIyWlLk6GJQsqaUBKTNV-6" edge="1">
          <mxGeometry relative="1" as="geometry" />
        </mxCell>
        <mxCell id="WIyWlLk6GJQsqaUBKTNV-3" value="Lamp doesn&#39;t work" style="rounded=1;whiteSpace=wrap;html=1;fontSize=12;glass=0;strokeWidth=1;shadow=0;" parent="WIyWlLk6GJQsqaUBKTNV-1" vertex="1">
          <mxGeometry x="40" y="120" width="120" height="40" as="geometry" />
        </mxCell>
        <mxCell id="WIyWlLk6GJQsqaUBKTNV-4" value="Yes" style="rounded=0;html=1;jettySize=auto;orthogonalLoop=1;fontSize=11;endArrow=block;endFill=0;endSize=8;strokeWidth=1;shadow=0;labelBackgroundColor=none;edgeStyle=orthogonalEdgeStyle;" parent="WIyWlLk6GJQsqaUBKTNV-1" source="WIyWlLk6GJQsqaUBKTNV-6" target="WIyWlLk6GJQsqaUBKTNV-10" edge="1">
          <mxGeometry y="20" relative="1" as="geometry">
            <mxPoint as="offset" />
          </mxGeometry>
        </mxCell>
        <mxCell id="WIyWlLk6GJQsqaUBKTNV-5" value="No" style="edgeStyle=orthogonalEdgeStyle;rounded=0;html=1;jettySize=auto;orthogonalLoop=1;fontSize=11;endArrow=block;endFill=0;endSize=8;strokeWidth=1;shadow=0;labelBackgroundColor=none;" parent="WIyWlLk6GJQsqaUBKTNV-1" source="WIyWlLk6GJQsqaUBKTNV-6" target="WIyWlLk6GJQsqaUBKTNV-7" edge="1">
          <mxGeometry y="10" relative="1" as="geometry">
            <mxPoint as="offset" />
          </mxGeometry>
        </mxCell>
        <mxCell id="WIyWlLk6GJQsqaUBKTNV-6" value="Lamp&lt;br&gt;plugged in?" style="rhombus;whiteSpace=wrap;html=1;shadow=0;fontFamily=Helvetica;fontSize=12;align=center;strokeWidth=1;spacing=6;spacingTop=-4;" parent="WIyWlLk6GJQsqaUBKTNV-1" vertex="1">
          <mxGeometry x="50" y="210" width="100" height="80" as="geometry" />
        </mxCell>
        <mxCell id="WIyWlLk6GJQsqaUBKTNV-7" value="Plug in lamp" style="rounded=1;whiteSpace=wrap;html=1;fontSize=12;glass=0;strokeWidth=1;shadow=0;" parent="WIyWlLk6GJQsqaUBKTNV-1" vertex="1">
          <mxGeometry x="200" y="230" width="120" height="40" as="geometry" />
        </mxCell>
        <mxCell id="WIyWlLk6GJQsqaUBKTNV-8" value="No" style="rounded=0;html=1;jettySize=auto;orthogonalLoop=1;fontSize=11;endArrow=block;endFill=0;endSize=8;strokeWidth=1;shadow=0;labelBackgroundColor=none;edgeStyle=orthogonalEdgeStyle;" parent="WIyWlLk6GJQsqaUBKTNV-1" source="WIyWlLk6GJQsqaUBKTNV-10" target="WIyWlLk6GJQsqaUBKTNV-11" edge="1">
          <mxGeometry x="0.3333" y="20" relative="1" as="geometry">
            <mxPoint as="offset" />
          </mxGeometry>
        </mxCell>
        <mxCell id="WIyWlLk6GJQsqaUBKTNV-9" value="Yes" style="edgeStyle=orthogonalEdgeStyle;rounded=0;html=1;jettySize=auto;orthogonalLoop=1;fontSize=11;endArrow=block;endFill=0;endSize=8;strokeWidth=1;shadow=0;labelBackgroundColor=none;" parent="WIyWlLk6GJQsqaUBKTNV-1" source="WIyWlLk6GJQsqaUBKTNV-10" target="WIyWlLk6GJQsqaUBKTNV-12" edge="1">
          <mxGeometry y="10" relative="1" as="geometry">
            <mxPoint as="offset" />
          </mxGeometry>
        </mxCell>
        <mxCell id="WIyWlLk6GJQsqaUBKTNV-10" value="Bulb&lt;br&gt;burned out?" style="rhombus;whiteSpace=wrap;html=1;shadow=0;fontFamily=Helvetica;fontSize=12;align=center;strokeWidth=1;spacing=6;spacingTop=-4;" parent="WIyWlLk6GJQsqaUBKTNV-1" vertex="1">
          <mxGeometry x="50" y="330" width="100" height="80" as="geometry" />
        </mxCell>
        <mxCell id="WIyWlLk6GJQsqaUBKTNV-11" value="Repair Lamp" style="rounded=1;whiteSpace=wrap;html=1;fontSize=12;glass=0;strokeWidth=1;shadow=0;" parent="WIyWlLk6GJQsqaUBKTNV-1" vertex="1">
          <mxGeometry x="40" y="470" width="120" height="40" as="geometry" />
        </mxCell>
        <mxCell id="WIyWlLk6GJQsqaUBKTNV-12" value="Replace Bulb" style="rounded=1;whiteSpace=wrap;html=1;fontSize=12;glass=0;strokeWidth=1;shadow=0;" parent="WIyWlLk6GJQsqaUBKTNV-1" vertex="1">
          <mxGeometry x="200" y="350" width="120" height="40" as="geometry" />
        </mxCell>
        <mxCell id="6WmjBrDx3e3DWXwAs0_x-0" value="流程图的要点&lt;br&gt;1. 流程&lt;br&gt;&lt;div style=&quot;&quot;&gt;&lt;span style=&quot;background-color: initial;&quot;&gt;2. 处理条件分支&lt;/span&gt;&lt;/div&gt;" style="text;html=1;align=left;verticalAlign=middle;resizable=0;points=[];autosize=1;strokeColor=none;fillColor=none;" parent="WIyWlLk6GJQsqaUBKTNV-1" vertex="1">
          <mxGeometry x="40" y="40" width="110" height="60" as="geometry" />
        </mxCell>
        <mxCell id="6WmjBrDx3e3DWXwAs0_x-6" style="rounded=0;orthogonalLoop=1;jettySize=auto;html=1;exitX=0.5;exitY=1;exitDx=0;exitDy=0;entryX=0.5;entryY=0;entryDx=0;entryDy=0;" parent="WIyWlLk6GJQsqaUBKTNV-1" source="6WmjBrDx3e3DWXwAs0_x-1" target="6WmjBrDx3e3DWXwAs0_x-2" edge="1">
          <mxGeometry relative="1" as="geometry" />
        </mxCell>
        <mxCell id="6WmjBrDx3e3DWXwAs0_x-7" style="rounded=0;orthogonalLoop=1;jettySize=auto;html=1;entryX=0.433;entryY=-0.05;entryDx=0;entryDy=0;entryPerimeter=0;exitX=0.5;exitY=1;exitDx=0;exitDy=0;" parent="WIyWlLk6GJQsqaUBKTNV-1" source="6WmjBrDx3e3DWXwAs0_x-1" target="6WmjBrDx3e3DWXwAs0_x-4" edge="1">
          <mxGeometry relative="1" as="geometry">
            <mxPoint x="475" y="200" as="sourcePoint" />
          </mxGeometry>
        </mxCell>
        <mxCell id="6WmjBrDx3e3DWXwAs0_x-1" value="流程开始" style="rounded=1;whiteSpace=wrap;html=1;fillStyle=solid;fillColor=#d5e8d4;strokeColor=#82b366;" parent="WIyWlLk6GJQsqaUBKTNV-1" vertex="1">
          <mxGeometry x="430" y="120" width="70" height="30" as="geometry" />
        </mxCell>
        <mxCell id="6WmjBrDx3e3DWXwAs0_x-8" value="流程结束" style="rounded=1;whiteSpace=wrap;html=1;fillStyle=solid;fillColor=#d5e8d4;strokeColor=#82b366;" parent="WIyWlLk6GJQsqaUBKTNV-1" vertex="1">
          <mxGeometry x="430" y="430" width="70" height="30" as="geometry" />
        </mxCell>
        <mxCell id="6WmjBrDx3e3DWXwAs0_x-14" style="rounded=0;orthogonalLoop=1;jettySize=auto;html=1;exitX=0.5;exitY=1;exitDx=0;exitDy=0;entryX=0.5;entryY=0;entryDx=0;entryDy=0;" parent="WIyWlLk6GJQsqaUBKTNV-1" source="6WmjBrDx3e3DWXwAs0_x-10" target="6WmjBrDx3e3DWXwAs0_x-8" edge="1">
          <mxGeometry relative="1" as="geometry">
            <mxPoint x="460" y="390" as="targetPoint" />
          </mxGeometry>
        </mxCell>
        <mxCell id="6WmjBrDx3e3DWXwAs0_x-15" style="rounded=0;orthogonalLoop=1;jettySize=auto;html=1;exitX=0.5;exitY=1;exitDx=0;exitDy=0;entryX=0.5;entryY=0;entryDx=0;entryDy=0;" parent="WIyWlLk6GJQsqaUBKTNV-1" source="6WmjBrDx3e3DWXwAs0_x-11" target="6WmjBrDx3e3DWXwAs0_x-8" edge="1">
          <mxGeometry relative="1" as="geometry" />
        </mxCell>
        <mxCell id="6WmjBrDx3e3DWXwAs0_x-20" value="" style="group" parent="WIyWlLk6GJQsqaUBKTNV-1" vertex="1" connectable="0">
          <mxGeometry x="358.75" y="230" width="212.5" height="130" as="geometry" />
        </mxCell>
        <mxCell id="6WmjBrDx3e3DWXwAs0_x-2" value="情况1" style="whiteSpace=wrap;html=1;rounded=1;fillStyle=solid;fillColor=#fff2cc;strokeColor=#d6b656;" parent="6WmjBrDx3e3DWXwAs0_x-20" vertex="1">
          <mxGeometry width="95.62499999999999" height="32.50000000000001" as="geometry" />
        </mxCell>
        <mxCell id="6WmjBrDx3e3DWXwAs0_x-4" value="情况2" style="whiteSpace=wrap;html=1;rounded=1;fillStyle=solid;fillColor=#fff2cc;strokeColor=#d6b656;" parent="6WmjBrDx3e3DWXwAs0_x-20" vertex="1">
          <mxGeometry x="116.875" width="95.62499999999999" height="32.50000000000001" as="geometry" />
        </mxCell>
        <mxCell id="6WmjBrDx3e3DWXwAs0_x-10" value="1的流程" style="rounded=1;whiteSpace=wrap;html=1;fillColor=#fff2cc;strokeColor=#d6b656;" parent="6WmjBrDx3e3DWXwAs0_x-20" vertex="1">
          <mxGeometry y="97.5" width="95.62499999999999" height="32.50000000000001" as="geometry" />
        </mxCell>
        <mxCell id="6WmjBrDx3e3DWXwAs0_x-13" style="edgeStyle=orthogonalEdgeStyle;rounded=0;orthogonalLoop=1;jettySize=auto;html=1;exitX=0.5;exitY=1;exitDx=0;exitDy=0;entryX=0.5;entryY=0;entryDx=0;entryDy=0;fillColor=#fff2cc;strokeColor=#d6b656;" parent="6WmjBrDx3e3DWXwAs0_x-20" source="6WmjBrDx3e3DWXwAs0_x-2" target="6WmjBrDx3e3DWXwAs0_x-10" edge="1">
          <mxGeometry relative="1" as="geometry" />
        </mxCell>
        <mxCell id="6WmjBrDx3e3DWXwAs0_x-11" value="2 的流程" style="rounded=1;whiteSpace=wrap;html=1;fillColor=#fff2cc;strokeColor=#d6b656;" parent="6WmjBrDx3e3DWXwAs0_x-20" vertex="1">
          <mxGeometry x="116.875" y="97.5" width="95.62499999999999" height="32.50000000000001" as="geometry" />
        </mxCell>
        <mxCell id="6WmjBrDx3e3DWXwAs0_x-12" value="" style="rounded=0;orthogonalLoop=1;jettySize=auto;html=1;fillColor=#fff2cc;strokeColor=#d6b656;" parent="6WmjBrDx3e3DWXwAs0_x-20" source="6WmjBrDx3e3DWXwAs0_x-4" target="6WmjBrDx3e3DWXwAs0_x-11" edge="1">
          <mxGeometry relative="1" as="geometry" />
        </mxCell>
        <mxCell id="8wNc4SXrdiQcW7aJmr-D-12" style="rounded=0;orthogonalLoop=1;jettySize=auto;html=1;exitX=0.5;exitY=1;exitDx=0;exitDy=0;endArrow=none;endFill=0;dashed=1;strokeColor=#000000;movable=1;resizable=1;rotatable=1;deletable=1;editable=1;locked=0;connectable=1;" edge="1" parent="WIyWlLk6GJQsqaUBKTNV-1" source="8wNc4SXrdiQcW7aJmr-D-0">
          <mxGeometry relative="1" as="geometry">
            <mxPoint x="224" y="1175" as="targetPoint" />
          </mxGeometry>
        </mxCell>
        <mxCell id="8wNc4SXrdiQcW7aJmr-D-0" value="取款机" style="rounded=0;whiteSpace=wrap;html=1;movable=0;resizable=0;rotatable=0;deletable=0;editable=0;locked=1;connectable=0;" vertex="1" parent="WIyWlLk6GJQsqaUBKTNV-1">
          <mxGeometry x="190.00058823529412" y="580" width="67.05882352941177" height="30" as="geometry" />
        </mxCell>
        <mxCell id="8wNc4SXrdiQcW7aJmr-D-1" value="" style="shape=umlActor;verticalLabelPosition=bottom;verticalAlign=top;html=1;outlineConnect=0;" vertex="1" parent="WIyWlLk6GJQsqaUBKTNV-1">
          <mxGeometry x="50" y="580" width="16.764705882352942" height="30" as="geometry" />
        </mxCell>
        <mxCell id="8wNc4SXrdiQcW7aJmr-D-4" value="银行服务器" style="rounded=0;whiteSpace=wrap;html=1;movable=0;resizable=0;rotatable=0;deletable=0;editable=0;locked=1;connectable=0;" vertex="1" parent="WIyWlLk6GJQsqaUBKTNV-1">
          <mxGeometry x="370" y="580" width="67.05882352941177" height="30" as="geometry" />
        </mxCell>
        <mxCell id="8wNc4SXrdiQcW7aJmr-D-5" value="银行账户" style="rounded=0;whiteSpace=wrap;html=1;movable=0;resizable=0;rotatable=0;deletable=0;editable=0;locked=1;connectable=0;" vertex="1" parent="WIyWlLk6GJQsqaUBKTNV-1">
          <mxGeometry x="540.0011764705882" y="580" width="67.05882352941177" height="30" as="geometry" />
        </mxCell>
        <mxCell id="8wNc4SXrdiQcW7aJmr-D-13" style="rounded=0;orthogonalLoop=1;jettySize=auto;html=1;exitX=0.5;exitY=1;exitDx=0;exitDy=0;endArrow=none;endFill=0;dashed=1;strokeColor=#000000;movable=1;resizable=1;rotatable=1;deletable=1;editable=1;locked=0;connectable=1;" edge="1" parent="WIyWlLk6GJQsqaUBKTNV-1" source="8wNc4SXrdiQcW7aJmr-D-4">
          <mxGeometry relative="1" as="geometry">
            <mxPoint x="404" y="1167" as="targetPoint" />
            <mxPoint x="402.2864705882354" y="607.99" as="sourcePoint" />
          </mxGeometry>
        </mxCell>
        <mxCell id="8wNc4SXrdiQcW7aJmr-D-14" style="rounded=0;orthogonalLoop=1;jettySize=auto;html=1;endArrow=none;endFill=0;dashed=1;strokeColor=#000000;exitX=0.5;exitY=1;exitDx=0;exitDy=0;movable=1;resizable=1;rotatable=1;deletable=1;editable=1;locked=0;connectable=1;" edge="1" parent="WIyWlLk6GJQsqaUBKTNV-1" source="8wNc4SXrdiQcW7aJmr-D-5">
          <mxGeometry relative="1" as="geometry">
            <mxPoint x="578" y="1167" as="targetPoint" />
            <mxPoint x="574" y="620" as="sourcePoint" />
          </mxGeometry>
        </mxCell>
        <mxCell id="8wNc4SXrdiQcW7aJmr-D-19" value="" style="endArrow=classic;html=1;rounded=0;" edge="1" parent="WIyWlLk6GJQsqaUBKTNV-1">
          <mxGeometry width="50" height="50" relative="1" as="geometry">
            <mxPoint x="60" y="628" as="sourcePoint" />
            <mxPoint x="220" y="628" as="targetPoint" />
          </mxGeometry>
        </mxCell>
        <mxCell id="8wNc4SXrdiQcW7aJmr-D-20" value="插入银行卡" style="edgeLabel;html=1;align=center;verticalAlign=middle;resizable=0;points=[];" vertex="1" connectable="0" parent="8wNc4SXrdiQcW7aJmr-D-19">
          <mxGeometry x="-0.1217" y="1" relative="1" as="geometry">
            <mxPoint x="10" y="-9" as="offset" />
          </mxGeometry>
        </mxCell>
        <mxCell id="8wNc4SXrdiQcW7aJmr-D-21" value="" style="endArrow=classic;html=1;rounded=0;" edge="1" parent="WIyWlLk6GJQsqaUBKTNV-1">
          <mxGeometry width="50" height="50" relative="1" as="geometry">
            <mxPoint x="223.5" y="642" as="sourcePoint" />
            <mxPoint x="400" y="642" as="targetPoint" />
          </mxGeometry>
        </mxCell>
        <mxCell id="8wNc4SXrdiQcW7aJmr-D-22" value="验证银行卡" style="edgeLabel;html=1;align=center;verticalAlign=middle;resizable=0;points=[];" vertex="1" connectable="0" parent="8wNc4SXrdiQcW7aJmr-D-21">
          <mxGeometry x="-0.1217" y="1" relative="1" as="geometry">
            <mxPoint x="9" y="-9" as="offset" />
          </mxGeometry>
        </mxCell>
        <mxCell id="8wNc4SXrdiQcW7aJmr-D-23" value="" style="endArrow=classic;html=1;rounded=0;dashed=1;" edge="1" parent="WIyWlLk6GJQsqaUBKTNV-1">
          <mxGeometry width="50" height="50" relative="1" as="geometry">
            <mxPoint x="404" y="682" as="sourcePoint" />
            <mxPoint x="224" y="682" as="targetPoint" />
          </mxGeometry>
        </mxCell>
        <mxCell id="8wNc4SXrdiQcW7aJmr-D-24" value="银行卡有效" style="edgeLabel;html=1;align=center;verticalAlign=middle;resizable=0;points=[];" vertex="1" connectable="0" parent="8wNc4SXrdiQcW7aJmr-D-23">
          <mxGeometry x="0.0925" y="-2" relative="1" as="geometry">
            <mxPoint x="4" y="-8" as="offset" />
          </mxGeometry>
        </mxCell>
        <mxCell id="8wNc4SXrdiQcW7aJmr-D-25" value="" style="endArrow=classic;html=1;rounded=0;dashed=1;" edge="1" parent="WIyWlLk6GJQsqaUBKTNV-1">
          <mxGeometry width="50" height="50" relative="1" as="geometry">
            <mxPoint x="404" y="782" as="sourcePoint" />
            <mxPoint x="224" y="782" as="targetPoint" />
          </mxGeometry>
        </mxCell>
        <mxCell id="8wNc4SXrdiQcW7aJmr-D-26" value="银行卡无效" style="edgeLabel;html=1;align=center;verticalAlign=middle;resizable=0;points=[];" vertex="1" connectable="0" parent="8wNc4SXrdiQcW7aJmr-D-25">
          <mxGeometry x="0.0925" y="-2" relative="1" as="geometry">
            <mxPoint x="4" y="-8" as="offset" />
          </mxGeometry>
        </mxCell>
        <mxCell id="8wNc4SXrdiQcW7aJmr-D-59" value="" style="endArrow=classic;html=1;rounded=0;" edge="1" parent="WIyWlLk6GJQsqaUBKTNV-1">
          <mxGeometry width="50" height="50" relative="1" as="geometry">
            <mxPoint x="226.33" y="724" as="sourcePoint" />
            <mxPoint x="57" y="724" as="targetPoint" />
          </mxGeometry>
        </mxCell>
        <mxCell id="8wNc4SXrdiQcW7aJmr-D-60" value="输入密码" style="edgeLabel;html=1;align=center;verticalAlign=middle;resizable=0;points=[];" vertex="1" connectable="0" parent="8wNc4SXrdiQcW7aJmr-D-59">
          <mxGeometry x="-0.1217" y="1" relative="1" as="geometry">
            <mxPoint x="-11" y="-9" as="offset" />
          </mxGeometry>
        </mxCell>
        <mxCell id="8wNc4SXrdiQcW7aJmr-D-61" value="" style="endArrow=classic;html=1;rounded=0;dashed=1;" edge="1" parent="WIyWlLk6GJQsqaUBKTNV-1">
          <mxGeometry width="50" height="50" relative="1" as="geometry">
            <mxPoint x="59" y="854" as="sourcePoint" />
            <mxPoint x="219" y="854" as="targetPoint" />
          </mxGeometry>
        </mxCell>
        <mxCell id="8wNc4SXrdiQcW7aJmr-D-62" value="输入密码" style="edgeLabel;html=1;align=center;verticalAlign=middle;resizable=0;points=[];" vertex="1" connectable="0" parent="8wNc4SXrdiQcW7aJmr-D-61">
          <mxGeometry x="-0.1217" y="1" relative="1" as="geometry">
            <mxPoint x="10" y="-9" as="offset" />
          </mxGeometry>
        </mxCell>
        <mxCell id="8wNc4SXrdiQcW7aJmr-D-63" value="" style="endArrow=classic;html=1;rounded=0;" edge="1" parent="WIyWlLk6GJQsqaUBKTNV-1">
          <mxGeometry width="50" height="50" relative="1" as="geometry">
            <mxPoint x="227" y="873" as="sourcePoint" />
            <mxPoint x="402" y="873" as="targetPoint" />
          </mxGeometry>
        </mxCell>
        <mxCell id="8wNc4SXrdiQcW7aJmr-D-64" value="验证密码" style="edgeLabel;html=1;align=center;verticalAlign=middle;resizable=0;points=[];" vertex="1" connectable="0" parent="8wNc4SXrdiQcW7aJmr-D-63">
          <mxGeometry x="-0.1217" y="1" relative="1" as="geometry">
            <mxPoint x="10" y="-9" as="offset" />
          </mxGeometry>
        </mxCell>
        <mxCell id="8wNc4SXrdiQcW7aJmr-D-18" style="edgeStyle=orthogonalEdgeStyle;rounded=0;orthogonalLoop=1;jettySize=auto;html=1;exitX=0.5;exitY=1;exitDx=0;exitDy=0;endArrow=none;endFill=0;dashed=1;strokeColor=#000000;movable=1;resizable=1;rotatable=1;deletable=1;editable=1;locked=0;connectable=1;" edge="1" parent="WIyWlLk6GJQsqaUBKTNV-1">
          <mxGeometry relative="1" as="geometry">
            <mxPoint x="58" y="1169" as="targetPoint" />
            <mxPoint x="58.47" y="609" as="sourcePoint" />
          </mxGeometry>
        </mxCell>
        <mxCell id="8wNc4SXrdiQcW7aJmr-D-67" value="" style="endArrow=classic;html=1;rounded=0;dashed=1;" edge="1" parent="WIyWlLk6GJQsqaUBKTNV-1">
          <mxGeometry width="50" height="50" relative="1" as="geometry">
            <mxPoint x="402" y="901" as="sourcePoint" />
            <mxPoint x="222" y="901" as="targetPoint" />
          </mxGeometry>
        </mxCell>
        <mxCell id="8wNc4SXrdiQcW7aJmr-D-68" value="密码有效，输入金额" style="edgeLabel;html=1;align=center;verticalAlign=middle;resizable=0;points=[];" vertex="1" connectable="0" parent="8wNc4SXrdiQcW7aJmr-D-67">
          <mxGeometry x="0.0925" y="-2" relative="1" as="geometry">
            <mxPoint x="4" y="-8" as="offset" />
          </mxGeometry>
        </mxCell>
        <mxCell id="8wNc4SXrdiQcW7aJmr-D-69" value="" style="endArrow=classic;html=1;rounded=0;" edge="1" parent="WIyWlLk6GJQsqaUBKTNV-1">
          <mxGeometry width="50" height="50" relative="1" as="geometry">
            <mxPoint x="223" y="923" as="sourcePoint" />
            <mxPoint x="58" y="923" as="targetPoint" />
          </mxGeometry>
        </mxCell>
        <mxCell id="8wNc4SXrdiQcW7aJmr-D-70" value="输入金额" style="edgeLabel;html=1;align=center;verticalAlign=middle;resizable=0;points=[];" vertex="1" connectable="0" parent="8wNc4SXrdiQcW7aJmr-D-69">
          <mxGeometry x="0.0925" y="-2" relative="1" as="geometry">
            <mxPoint x="4" y="-8" as="offset" />
          </mxGeometry>
        </mxCell>
        <mxCell id="8wNc4SXrdiQcW7aJmr-D-73" value="" style="endArrow=classic;html=1;rounded=0;dashed=1;" edge="1" parent="WIyWlLk6GJQsqaUBKTNV-1">
          <mxGeometry width="50" height="50" relative="1" as="geometry">
            <mxPoint x="56" y="955" as="sourcePoint" />
            <mxPoint x="225" y="955" as="targetPoint" />
          </mxGeometry>
        </mxCell>
        <mxCell id="8wNc4SXrdiQcW7aJmr-D-74" value="金额输入" style="edgeLabel;html=1;align=center;verticalAlign=middle;resizable=0;points=[];" vertex="1" connectable="0" parent="8wNc4SXrdiQcW7aJmr-D-73">
          <mxGeometry x="-0.1217" y="1" relative="1" as="geometry">
            <mxPoint x="10" y="-9" as="offset" />
          </mxGeometry>
        </mxCell>
        <mxCell id="8wNc4SXrdiQcW7aJmr-D-75" value="" style="endArrow=classic;html=1;rounded=0;" edge="1" parent="WIyWlLk6GJQsqaUBKTNV-1">
          <mxGeometry width="50" height="50" relative="1" as="geometry">
            <mxPoint x="228.03" y="983" as="sourcePoint" />
            <mxPoint x="403.03" y="983" as="targetPoint" />
          </mxGeometry>
        </mxCell>
        <mxCell id="8wNc4SXrdiQcW7aJmr-D-76" value="开始交易" style="edgeLabel;html=1;align=center;verticalAlign=middle;resizable=0;points=[];" vertex="1" connectable="0" parent="8wNc4SXrdiQcW7aJmr-D-75">
          <mxGeometry x="-0.1217" y="1" relative="1" as="geometry">
            <mxPoint x="10" y="-9" as="offset" />
          </mxGeometry>
        </mxCell>
        <mxCell id="8wNc4SXrdiQcW7aJmr-D-77" value="" style="endArrow=classic;html=1;rounded=0;" edge="1" parent="WIyWlLk6GJQsqaUBKTNV-1">
          <mxGeometry width="50" height="50" relative="1" as="geometry">
            <mxPoint x="404.03" y="1014" as="sourcePoint" />
            <mxPoint x="579.03" y="1014" as="targetPoint" />
          </mxGeometry>
        </mxCell>
        <mxCell id="8wNc4SXrdiQcW7aJmr-D-78" value="验证余额" style="edgeLabel;html=1;align=center;verticalAlign=middle;resizable=0;points=[];" vertex="1" connectable="0" parent="8wNc4SXrdiQcW7aJmr-D-77">
          <mxGeometry x="-0.1217" y="1" relative="1" as="geometry">
            <mxPoint x="10" y="-9" as="offset" />
          </mxGeometry>
        </mxCell>
        <mxCell id="8wNc4SXrdiQcW7aJmr-D-79" value="" style="endArrow=classic;html=1;rounded=0;dashed=1;" edge="1" parent="WIyWlLk6GJQsqaUBKTNV-1">
          <mxGeometry width="50" height="50" relative="1" as="geometry">
            <mxPoint x="578" y="1046" as="sourcePoint" />
            <mxPoint x="398" y="1046" as="targetPoint" />
          </mxGeometry>
        </mxCell>
        <mxCell id="8wNc4SXrdiQcW7aJmr-D-80" value="余额充足" style="edgeLabel;html=1;align=center;verticalAlign=middle;resizable=0;points=[];" vertex="1" connectable="0" parent="8wNc4SXrdiQcW7aJmr-D-79">
          <mxGeometry x="0.0925" y="-2" relative="1" as="geometry">
            <mxPoint x="4" y="-8" as="offset" />
          </mxGeometry>
        </mxCell>
        <mxCell id="8wNc4SXrdiQcW7aJmr-D-81" value="" style="endArrow=classic;html=1;rounded=0;" edge="1" parent="WIyWlLk6GJQsqaUBKTNV-1">
          <mxGeometry width="50" height="50" relative="1" as="geometry">
            <mxPoint x="404" y="1080" as="sourcePoint" />
            <mxPoint x="579" y="1080" as="targetPoint" />
          </mxGeometry>
        </mxCell>
        <mxCell id="8wNc4SXrdiQcW7aJmr-D-82" value="提取金额" style="edgeLabel;html=1;align=center;verticalAlign=middle;resizable=0;points=[];" vertex="1" connectable="0" parent="8wNc4SXrdiQcW7aJmr-D-81">
          <mxGeometry x="-0.1217" y="1" relative="1" as="geometry">
            <mxPoint x="10" y="-9" as="offset" />
          </mxGeometry>
        </mxCell>
        <mxCell id="8wNc4SXrdiQcW7aJmr-D-83" value="" style="endArrow=classic;html=1;rounded=0;dashed=1;" edge="1" parent="WIyWlLk6GJQsqaUBKTNV-1">
          <mxGeometry width="50" height="50" relative="1" as="geometry">
            <mxPoint x="580" y="1108" as="sourcePoint" />
            <mxPoint x="400" y="1108" as="targetPoint" />
          </mxGeometry>
        </mxCell>
        <mxCell id="8wNc4SXrdiQcW7aJmr-D-84" value="提取成功" style="edgeLabel;html=1;align=center;verticalAlign=middle;resizable=0;points=[];" vertex="1" connectable="0" parent="8wNc4SXrdiQcW7aJmr-D-83">
          <mxGeometry x="0.0925" y="-2" relative="1" as="geometry">
            <mxPoint x="4" y="-8" as="offset" />
          </mxGeometry>
        </mxCell>
        <mxCell id="8wNc4SXrdiQcW7aJmr-D-85" value="" style="endArrow=classic;html=1;rounded=0;dashed=1;" edge="1" parent="WIyWlLk6GJQsqaUBKTNV-1">
          <mxGeometry width="50" height="50" relative="1" as="geometry">
            <mxPoint x="405" y="1128" as="sourcePoint" />
            <mxPoint x="225" y="1128" as="targetPoint" />
          </mxGeometry>
        </mxCell>
        <mxCell id="8wNc4SXrdiQcW7aJmr-D-86" value="交易成功" style="edgeLabel;html=1;align=center;verticalAlign=middle;resizable=0;points=[];" vertex="1" connectable="0" parent="8wNc4SXrdiQcW7aJmr-D-85">
          <mxGeometry x="0.0925" y="-2" relative="1" as="geometry">
            <mxPoint x="4" y="-8" as="offset" />
          </mxGeometry>
        </mxCell>
        <mxCell id="8wNc4SXrdiQcW7aJmr-D-88" value="" style="endArrow=classic;html=1;rounded=0;" edge="1" parent="WIyWlLk6GJQsqaUBKTNV-1">
          <mxGeometry width="50" height="50" relative="1" as="geometry">
            <mxPoint x="225" y="1153" as="sourcePoint" />
            <mxPoint x="57" y="1153" as="targetPoint" />
          </mxGeometry>
        </mxCell>
        <mxCell id="8wNc4SXrdiQcW7aJmr-D-89" value="吐出现金" style="edgeLabel;html=1;align=center;verticalAlign=middle;resizable=0;points=[];" vertex="1" connectable="0" parent="8wNc4SXrdiQcW7aJmr-D-88">
          <mxGeometry x="0.0925" y="-2" relative="1" as="geometry">
            <mxPoint x="4" y="-8" as="offset" />
          </mxGeometry>
        </mxCell>
      </root>
    </mxGraphModel>
  </diagram>
</mxfile>
